# xmcd
#
# Track frame offsets: 
#        150
#        5393
#        23930
#        34273
#        49703
#        68516
#        86199
#        100662
#        115014
#        131656
#        136574
#        151117
#        165529
#        171528
#        181216
#        193400
#
# Disc length: 2897 seconds
#
# Revision: 0
# Processed by: cddbd v1.5.2PL0 Copyright (c) Steve Scherf et al.
# Submitted via: ExactAudioCopyFreeDBPlugin 1.0
#
DISCID=cb0b4f10
DTITLE=TXUS BLUES and JOSE BLUEFINGERS - Blues Circus
DYEAR=2012
DGENRE=Blues
TTITLE0=Presentación (Tulipamagüey)
TTITLE1=Yo no Hablo Inglés
TTITLE2=T.D.T. (T.N.T.)
TTITLE3=Un Hombre con Trabajo
TTITLE4=Blues de la Play Station (Love in Vain)
TTITLE5=Todos Queremos Más
TTITLE6=Se te ha Parado el Reloj (Whole Lotta Love)
TTITLE7=Ahora Voy (Winin' Boy Blues)
TTITLE8=Beatriz
TTITLE9=Kanción del Kolocao (Canción del Colacao)
TTITLE10=Sexo
TTITLE11=Llueve en mi Corazón (Raining in my Heart)
TTITLE12=Oda a la "J"
TTITLE13=Aprovecho
TTITLE14=Whammer Jammer
TTITLE15=Tengo un Día Espeso (Midnight Special)
EXTD=
EXTT0=
EXTT1=
EXTT2=
EXTT3=
EXTT4=
EXTT5=
EXTT6=
EXTT7=
EXTT8=
EXTT9=
EXTT10=
EXTT11=
EXTT12=
EXTT13=
EXTT14=
EXTT15=
PLAYORDER=
